<svg xmlns="http://www.w3.org/2000/svg" width="118" height="118" viewBox="0 0 118 118">
  <g id="Grupo_1177506" data-name="Grupo 1177506" transform="translate(-325.711 -10004)">
    <g id="Grupo_1176872" data-name="Grupo 1176872" transform="translate(-3.348 3773)">
      <rect id="Rectángulo_454606" data-name="Rectángulo 454606" width="118" height="118" rx="20" transform="translate(329.059 6231)" fill="#ff974d"/>
      <g id="idea" transform="translate(339.248 6250.912)">
        <g id="Grupo_1177200" data-name="Grupo 1177200" transform="translate(10.873 0.624)">
          <g id="Grupo_1177199" data-name="Grupo 1177199">
            <path id="Trazado_992586" data-name="Trazado 992586" d="M236.782,224.6h-8.936v6.69a2.327,2.327,0,0,0,2.327,2.327h4.281a2.327,2.327,0,0,0,2.327-2.327Z" transform="translate(-194.335 -188.881)" fill="#a59ca6"/>
            <path id="Trazado_992587" data-name="Trazado 992587" d="M236.194,232.236h-4.281a2.327,2.327,0,0,1-2.327-2.327v-.58a.9.9,0,0,1,.9-.9h6.293V224.6h-8.936v6.69a2.327,2.327,0,0,0,2.327,2.327h4.281A2.328,2.328,0,0,0,236.6,232.2,2.336,2.336,0,0,1,236.194,232.236Z" transform="translate(-194.334 -188.882)" fill="#8f8390"/>
            <path id="Trazado_992588" data-name="Trazado 992588" d="M300.782,279.222l7.108-5.991a3.438,3.438,0,0,0,.4-4.864,3.483,3.483,0,0,0-4.89-.4l-14.774,12.452-5.56,4.818,7.783,3.06Z" transform="translate(-240.622 -224.544)" fill="#ffe0d1"/>
            <path id="Trazado_992589" data-name="Trazado 992589" d="M285.55,285.959l5.56-4.818,14.774-12.452a3.464,3.464,0,0,1,1.909-.8,3.487,3.487,0,0,0-4.39.079l-14.774,12.452-5.56,4.818,7.783,3.06.2-.178Z" transform="translate(-240.622 -224.547)" fill="#ffd1c2"/>
            <path id="Trazado_992590" data-name="Trazado 992590" d="M262.351,269.24l11.214-9.378a3.418,3.418,0,0,0,.152-4.628,3.53,3.53,0,0,0-4.929-.4l-9.992,8.357-7.453,5.774,4.443,5.642Z" transform="translate(-214.029 -213.536)" fill="#ffe0d1"/>
            <path id="Trazado_992591" data-name="Trazado 992591" d="M253.862,270.125l7.453-5.774,9.992-8.357a3.517,3.517,0,0,1,2.361-.815,3.531,3.531,0,0,0-4.88-.346l-9.992,8.357-7.453,5.774,4.443,5.642.977-.8Z" transform="translate(-214.03 -213.538)" fill="#ffd1c2"/>
            <path id="Trazado_992592" data-name="Trazado 992592" d="M192.061,19.026a15.166,15.166,0,1,0-27.57,8.728l7.3,11.361v1.477a1.684,1.684,0,0,0,1.684,1.684h6.844A1.684,1.684,0,0,0,182,40.593V39.116l7.3-11.361A15.093,15.093,0,0,0,192.061,19.026Z" transform="translate(-138.917 -3.86)" fill="#fbe88c"/>
            <path id="Trazado_992593" data-name="Trazado 992593" d="M170.887,29.69A16.7,16.7,0,0,1,168,20.255a16.288,16.288,0,0,1,12.365-16,15.169,15.169,0,0,0-15.873,23.5l7.3,11.361v1.477a1.684,1.684,0,0,0,1.684,1.684h4.334Z" transform="translate(-138.917 -3.86)" fill="#fbe372"/>
            <g id="Grupo_1177197" data-name="Grupo 1177197" transform="translate(0 44.736)">
              <g id="XMLID_250_">
                <g id="Grupo_1177196" data-name="Grupo 1177196" transform="translate(0 0)">
                  <path id="Trazado_992594" data-name="Trazado 992594" d="M67.353,291.44l.277.031H78.209a3.406,3.406,0,0,0,2.2-.807l11.225-9.513a3.451,3.451,0,0,1,4.461,5.265L78.379,301.433a12.256,12.256,0,0,1-6.458,2.815l-19.786,2.38-7.679,9.195a1.017,1.017,0,0,1-1.09.317l-21.911-7.009a1.017,1.017,0,0,1-.487-1.6l8.458-10.674.629-1.328A18.643,18.643,0,0,1,46.9,284.875H63.657a4.324,4.324,0,0,1,3.7,6.565Z" transform="translate(-20.747 -280.333)" fill="#ffe0d1"/>
                </g>
                <path id="Trazado_992595" data-name="Trazado 992595" d="M217.539,280.333a3.44,3.44,0,0,0-2.228.817l-11.225,9.513a3.406,3.406,0,0,1-2.2.807H191.3l-.277-.031a4.35,4.35,0,0,0,.22-.417H168.3v.83a4.092,4.092,0,0,0,4.092,4.092h14.948a6.787,6.787,0,0,0,4.927-2.148,1.5,1.5,0,0,1,1.092-.472H203a3.52,3.52,0,0,0,2.317-.876l11.81-10.315a3.526,3.526,0,0,1,2.787-.857,3.448,3.448,0,0,0-2.376-.945Z" transform="translate(-144.421 -280.333)" fill="#ffd1c2"/>
                <path id="Trazado_992596" data-name="Trazado 992596" d="M179.585,312.725a4.318,4.318,0,0,1-4.416,4.32H154.046l-.149-8.066a18.716,18.716,0,0,1,4.607-.576h16.759a4.32,4.32,0,0,1,4.322,4.322Z" transform="translate(-132.352 -303.861)" fill="#ffe0d1"/>
              </g>
            </g>
            <g id="Grupo_1177198" data-name="Grupo 1177198" transform="translate(0 49.278)">
              <path id="Trazado_992597" data-name="Trazado 992597" d="M31.834,323.818l.629-1.328a18.643,18.643,0,0,1,16.845-10.654H66.067a4.312,4.312,0,0,1,1.891.435,4.323,4.323,0,0,0-4.3-3.868H46.9a18.643,18.643,0,0,0-16.845,10.654l-.629,1.328L20.967,331.06a1.017,1.017,0,0,0,.487,1.6l2.691.861Z" transform="translate(-20.747 -308.403)" fill="#ffd1c2"/>
            </g>
          </g>
        </g>
        <g id="Grupo_1177201" data-name="Grupo 1177201" transform="translate(8.967 -0.001)">
          <path id="Trazado_992598" data-name="Trazado 992598" d="M23.5,332.11a19.762,19.762,0,0,0-4.415,6.025l-.571,1.2L9.229,351.057a1.214,1.214,0,1,0,1.9,1.507l9.37-11.828a1.22,1.22,0,0,0,.145-.233l.63-1.328a17.343,17.343,0,0,1,3.876-5.288A1.214,1.214,0,1,0,23.5,332.11Z" transform="translate(-8.967 -278.098)"/>
          <path id="Trazado_992599" data-name="Trazado 992599" d="M182.862,252.432a4.67,4.67,0,0,0-6.574-.543l-.627.532a4.662,4.662,0,0,0-7.592-2.664l-.557.472a4.671,4.671,0,0,0-7.584-2.6l-9.328,7.905a5.516,5.516,0,0,0-1.505-.21h-16.76a19.941,19.941,0,0,0-8.994,2.156,1.214,1.214,0,1,0,1.1,2.164,17.5,17.5,0,0,1,7.894-1.893h16.76a3.107,3.107,0,1,1-.068,6.214H138.183a1.214,1.214,0,1,0,0,2.427H149.1a5.489,5.489,0,0,0,3.865-1.577,5.655,5.655,0,0,0,.428-.47h10.254a4.623,4.623,0,0,0,2.986-1.1l11.224-9.513a2.237,2.237,0,0,1,2.893,3.414l-17.719,15.017a11.007,11.007,0,0,1-5.818,2.538l-2.186.263a1.214,1.214,0,0,0,.144,2.419,1.245,1.245,0,0,0,.147-.009l2.186-.263a13.423,13.423,0,0,0,7.1-3.1l17.719-15.017A4.67,4.67,0,0,0,182.862,252.432ZM161.5,249.484a2.237,2.237,0,0,1,3.094,3.221l-9.969,8.449q.008-.145.008-.291a5.52,5.52,0,0,0-1.773-4.055Zm-4.028,12.438,12.169-10.313a2.237,2.237,0,0,1,2.893,3.414l-7.468,6.38a2.194,2.194,0,0,1-1.417.52Z" transform="translate(-104.278 -206.637)"/>
          <path id="Trazado_992600" data-name="Trazado 992600" d="M178.687,426.1l-12.444,1.5a1.214,1.214,0,0,0-.786.427l-8.119,9.719A1.214,1.214,0,0,0,159.2,439.3l7.81-9.35,11.967-1.439a1.214,1.214,0,1,0-.29-2.41Z" transform="translate(-133.093 -357.148)"/>
          <path id="Trazado_992601" data-name="Trazado 992601" d="M169.946,34.725s-7.092-11.041-7.1-11.055a13.491,13.491,0,0,1-2.306-5.747,1.214,1.214,0,1,0-2.4.359,15.925,15.925,0,0,0,2.707,6.764l6.867,10.69v1.77a2.14,2.14,0,0,0,.481,1.353v4.171a3.545,3.545,0,0,0,3.541,3.541h4.281a3.545,3.545,0,0,0,3.541-3.541V38.861a2.14,2.14,0,0,0,.481-1.353v-1.77l6.867-10.69a15.916,15.916,0,0,0-4.061-22.284,16.222,16.222,0,0,0-15.267-1.548,14.8,14.8,0,0,0-8.359,8.3,18.151,18.151,0,0,0-.936,3.168,1.214,1.214,0,0,0,2.381.469,15.718,15.718,0,0,1,.811-2.743,12.364,12.364,0,0,1,6.985-6.937,13.829,13.829,0,0,1,13.016,1.291,13.489,13.489,0,0,1,3.431,18.9c-.01.014-7.1,11.055-7.1,11.055a1.215,1.215,0,0,0-.192.656v1.851h-.3L178,25.5h1.157a3.379,3.379,0,0,0,3.376-3.376v-.134a3.376,3.376,0,0,0-6.746-.2l-.075,1.281h-3.672l-.075-1.281a3.376,3.376,0,0,0-6.746.2v.134A3.379,3.379,0,0,0,168.6,25.5h1.157l.691,11.732h-.308V35.381a1.213,1.213,0,0,0-.192-.656Zm8.268-12.791a.949.949,0,0,1,1.9.056v.134a.95.95,0,0,1-.949.949h-1.014ZM168.6,23.073a.95.95,0,0,1-.949-.949V21.99a.949.949,0,0,1,1.9-.056l.067,1.138H168.6Zm8.53,19.959a1.115,1.115,0,0,1-1.114,1.114h-4.281a1.115,1.115,0,0,1-1.114-1.114V39.659h6.509ZM172.187,25.5h3.386l-.691,11.732h-2Z" transform="translate(-133.989 0.001)"/>
          <path id="Trazado_992602" data-name="Trazado 992602" d="M385.353,100.19a1.213,1.213,0,0,0,1.214,1.214h2.861a1.214,1.214,0,1,0,0-2.427h-2.861A1.214,1.214,0,0,0,385.353,100.19Z" transform="translate(-324.45 -82.96)"/>
          <path id="Trazado_992603" data-name="Trazado 992603" d="M374.7,49.095a1.209,1.209,0,0,0,.422-.076l2.682-.994a1.214,1.214,0,1,0-.844-2.276l-2.682.994a1.214,1.214,0,0,0,.422,2.352Z" transform="translate(-314.503 -38.282)"/>
          <path id="Trazado_992604" data-name="Trazado 992604" d="M374.279,148.484l2.682.994a1.214,1.214,0,0,0,.843-2.276l-2.682-.994a1.214,1.214,0,1,0-.843,2.276Z" transform="translate(-314.504 -122.486)"/>
          <path id="Trazado_992605" data-name="Trazado 992605" d="M94.1,101.4h2.861a1.214,1.214,0,0,0,0-2.427H94.1a1.214,1.214,0,0,0,0,2.427Z" transform="translate(-79.304 -82.96)"/>
          <path id="Trazado_992606" data-name="Trazado 992606" d="M106.637,48.026l2.682.994a1.214,1.214,0,0,0,.843-2.276l-2.682-.994a1.214,1.214,0,1,0-.843,2.276Z" transform="translate(-90.169 -38.284)"/>
          <path id="Trazado_992607" data-name="Trazado 992607" d="M110.88,146.923a1.213,1.213,0,0,0-1.56-.716l-2.682.994a1.214,1.214,0,1,0,.843,2.276l2.682-.994A1.213,1.213,0,0,0,110.88,146.923Z" transform="translate(-90.17 -122.485)"/>
        </g>
      </g>
    </g>
  </g>
</svg>
